<svg xmlns="http://www.w3.org/2000/svg" version="1.1" xmlns:xlink="http://www.w3.org/1999/xlink" xmlns:svgjs="http://svgjs.dev/svgjs" width="1440" height="560" preserveAspectRatio="none" viewBox="0 0 1440 560"><g mask="url(&quot;#SvgjsMask1009&quot;)" fill="none"><rect width="1440" height="560" x="0" y="0" fill="url(&quot;#SvgjsLinearGradient1010&quot;)"></rect><path d="M1440 0L1209.1 0L1440 120.41z" fill="rgba(255, 255, 255, .1)"></path><path d="M1209.1 0L1440 120.41L1440 203.03L740.9499999999999 0z" fill="rgba(255, 255, 255, .075)"></path><path d="M740.95 0L1440 203.03L1440 204.42L423.64000000000004 0z" fill="rgba(255, 255, 255, .05)"></path><path d="M423.6400000000001 0L1440 204.42L1440 344.25L235.6500000000001 0z" fill="rgba(255, 255, 255, .025)"></path><path d="M0 560L430.01 560L0 371.40999999999997z" fill="rgba(0, 0, 0, .1)"></path><path d="M0 371.40999999999997L430.01 560L672 560L0 315.13z" fill="rgba(0, 0, 0, .075)"></path><path d="M0 315.13L672 560L866.59 560L0 202.39999999999998z" fill="rgba(0, 0, 0, .05)"></path><path d="M0 202.39999999999998L866.59 560L958.64 560L0 146.61999999999998z" fill="rgba(0, 0, 0, .025)"></path></g><defs><mask id="SvgjsMask1009"><rect width="1440" height="560" fill="#ffffff"></rect></mask><linearGradient x1="15.28%" y1="-39.29%" x2="84.72%" y2="139.29%" gradientUnits="userSpaceOnUse" id="SvgjsLinearGradient1010"><stop stop-color="#0e2a47" offset="0"></stop><stop stop-color="rgba(85, 175, 199, 1)" offset="1"></stop></linearGradient></defs></svg>